<svg xmlns="http://www.w3.org/2000/svg" viewBox="0 0 2000 1440" width="2000" height="1440">
<defs>
<linearGradient id="gold" x1="0" y1="0" x2="1" y2="1">
 <stop offset="0" stop-color="#e3b450"/><stop offset=".28" stop-color="#c38a26"/>
 <stop offset=".5" stop-color="#e9c46a"/><stop offset=".72" stop-color="#a86f17"/>
 <stop offset="1" stop-color="#8a5a10"/></linearGradient>
<linearGradient id="goldText" x1="0" y1="0" x2="0" y2="1">
 <stop offset="0" stop-color="#e2b04a"/><stop offset=".45" stop-color="#a8701a"/>
 <stop offset=".7" stop-color="#d9a640"/><stop offset="1" stop-color="#8f5e12"/></linearGradient>
<linearGradient id="goldV" x1="0" y1="0" x2="0" y2="1">
 <stop offset="0" stop-color="#e8c060"/><stop offset=".5" stop-color="#b98222"/><stop offset="1" stop-color="#7d520e"/></linearGradient>
<linearGradient id="goldH" x1="0" y1="0" x2="1" y2="0">
 <stop offset="0" stop-color="#8a5a10"/><stop offset=".35" stop-color="#e6bd5c"/>
 <stop offset=".6" stop-color="#c08624"/><stop offset="1" stop-color="#7d520e"/></linearGradient>
<linearGradient id="steel" x1="0" y1="0" x2="1" y2="1">
 <stop offset="0" stop-color="#5b636c"/><stop offset=".3" stop-color="#3c434c"/>
 <stop offset=".55" stop-color="#7f8891"/><stop offset=".75" stop-color="#454c55"/>
 <stop offset="1" stop-color="#30363e"/></linearGradient>
<linearGradient id="steelText" x1="0" y1="0" x2="0" y2="1">
 <stop offset="0" stop-color="#2f353d"/><stop offset=".5" stop-color="#5a626b"/>
 <stop offset=".72" stop-color="#8d959d"/><stop offset="1" stop-color="#363c44"/></linearGradient>
<linearGradient id="steelV" x1="0" y1="0" x2="0" y2="1">
 <stop offset="0" stop-color="#8a929b"/><stop offset=".5" stop-color="#4b525b"/><stop offset="1" stop-color="#2c3238"/></linearGradient>
<pattern id="bricks" patternUnits="userSpaceOnUse" x="643" y="325" width="220" height="80">
 <rect x="0" y="0" width="110" height="40" fill="#fff" opacity=".05"/>
 <rect x="165" y="40" width="55" height="40" fill="#000" opacity=".06"/>
 <rect x="0" y="40" width="55" height="40" fill="#000" opacity=".06"/>
 <rect x="110" y="0" width="110" height="40" fill="#000" opacity=".03"/>
 <g stroke="#6b4206" stroke-width="2.2" opacity=".75" fill="none">
  <path d="M0 1H220M0 41H220M110 0V40M0 0V40M55 40V80M165 40V80"/></g>
 <g stroke="#f4d88e" stroke-width="1.2" opacity=".45" fill="none">
  <path d="M0 3.5H220M0 43.5H220M112.5 3V40M2.5 3V40M57.5 43V80M167.5 43V80"/></g>
</pattern>
<pattern id="truss" patternUnits="userSpaceOnUse" x="1083" y="347" width="84" height="84">
 <g stroke="#c4cbd3" fill="none" stroke-linecap="round">
  <path d="M0 0H84" stroke-width="3" opacity=".7"/>
  <path d="M0 0L42 84L84 0M0 84L-42 0M84 84L126 0" stroke-width="1.8" opacity=".55"/>
  <path d="M42 0L21 42M42 0L63 42" stroke-width="1.3" opacity=".35"/>
  <path d="M0 0V84M84 0V84" stroke-width="1.3" opacity=".3"/>
 </g>
 <circle cx="0" cy="0" r="4.6" fill="#e9edf1"/><circle cx="84" cy="0" r="4.6" fill="#e9edf1"/>
 <circle cx="0" cy="84" r="4.6" fill="#e9edf1"/><circle cx="84" cy="84" r="4.6" fill="#e9edf1"/>
</pattern>
<linearGradient id="sheen" x1="0" y1="0" x2="1" y2="1">
 <stop offset="0" stop-color="#fff" stop-opacity="0"/><stop offset=".48" stop-color="#fff" stop-opacity="0"/>
 <stop offset=".52" stop-color="#fff" stop-opacity=".18"/><stop offset=".58" stop-color="#fff" stop-opacity="0"/></linearGradient>
<filter id="shadow" x="-10%" y="-10%" width="120%" height="125%">
 <feDropShadow dx="0" dy="5" stdDeviation="7" flood-color="#3a2a10" flood-opacity=".22"/></filter>
<clipPath id="goldClip"><path id="goldShape" clip-rule="evenodd" d="M643 284H760C778 284 790 288 800 302L1000 561V712H962L760 464V746H643ZM760 332H778A48 48 0 0 1 778 428H760Z"/></clipPath>
<clipPath id="steelClip"><path d="M1189 284H1356V746H1239V451L1038 712H1000V560Z"/></clipPath>
</defs>

<g id="monogram" filter="url(#shadow)">
<g clip-path="url(#goldClip)"><rect x="640" y="280" width="365" height="470" fill="url(#gold)"/><rect x="640" y="280" width="365" height="470" fill="url(#bricks)"/><rect x="643" y="296" width="170" height="22" fill="#000" opacity=".06"/><path d="M643 296H820M643 318H820" stroke="#6b4206" stroke-width="2" opacity=".6"/><rect x="650" y="304" width="8" height="8" fill="#7a4e0c" opacity=".7"/><rect x="664" y="304" width="8" height="8" fill="#7a4e0c" opacity=".7"/><rect x="678" y="304" width="8" height="8" fill="#7a4e0c" opacity=".7"/><rect x="692" y="304" width="8" height="8" fill="#7a4e0c" opacity=".7"/><rect x="706" y="304" width="8" height="8" fill="#7a4e0c" opacity=".7"/><rect x="720" y="304" width="8" height="8" fill="#7a4e0c" opacity=".7"/><rect x="734" y="304" width="8" height="8" fill="#7a4e0c" opacity=".7"/><rect x="748" y="304" width="8" height="8" fill="#7a4e0c" opacity=".7"/><rect x="762" y="304" width="8" height="8" fill="#7a4e0c" opacity=".7"/><rect x="776" y="304" width="8" height="8" fill="#7a4e0c" opacity=".7"/><rect x="790" y="304" width="8" height="8" fill="#7a4e0c" opacity=".7"/><path d="M1000 561V712" stroke="#6b4206" stroke-width="2" opacity=".5"/></g>
<g clip-path="url(#steelClip)"><rect x="995" y="280" width="365" height="470" fill="url(#steel)"/><rect x="995" y="280" width="365" height="470" fill="url(#truss)"/><rect x="995" y="280" width="365" height="470" fill="url(#sheen)"/></g>
</g>
<g id="base"><rect x="622" y="751" width="380" height="11" rx="3" fill="url(#goldV)"/><rect x="1000" y="751" width="378" height="11" rx="3" fill="url(#steelV)"/><path d="M625 753.5H1375" stroke="#fff" stroke-width="1" opacity=".35"/></g>
<g id="plumb"><rect x="1356" y="292" width="72" height="7" fill="url(#steelV)"/><path d="M1428 300V611" stroke="#3a4048" stroke-width="2"/><circle cx="1428" cy="296" r="6" fill="url(#goldH)" stroke="#7d520e" stroke-width="1"/><rect x="1418" y="608" width="20" height="12" rx="2" fill="url(#goldH)" stroke="#7d520e" stroke-width="1"/><path d="M1418 612H1438M1418 616H1438" stroke="#7d520e" stroke-width="1"/><path d="M1405 621H1451L1450 650L1430 724H1426L1406 650Z" fill="url(#goldH)" stroke="#7d520e" stroke-width="1"/><path d="M1413 626L1414 652L1427 708" stroke="#fbe7b0" stroke-width="2" fill="none" opacity=".8"/><path d="M1405 649H1451" stroke="#7d520e" stroke-width="1" opacity=".6"/></g>
<g id="protractor" stroke-linecap="round">
<path d="M760 470V622" stroke="#4a525c" stroke-width="2.6" stroke-dasharray="7 5"/>
<path d="M763.79 468.65L864.24 591.9" stroke="#4a525c" stroke-width="2.6" stroke-dasharray="7 5"/>
<path d="M760 587A123 123 0 0 0 837.71 559.35" stroke="url(#steelV)" stroke-width="5.5" fill="none"/>
<path d="M760 585L760 571M768.27 584.72L767.72 576.74M776.5 583.87L775.41 575.94M784.65 582.46L783.02 574.63M792.69 580.5L790.52 572.8M800.57 578L795.88 564.81M808.26 574.96L805.07 567.62M815.73 571.4L812.05 564.3M822.94 567.34L818.78 560.51M829.86 562.8L825.24 556.27M836.44 557.79L827.6 546.94" stroke="#3a4048" stroke-width="1.8"/>
<circle cx="760" cy="464" r="5.5" fill="url(#goldH)" stroke="#7d520e" stroke-width="1"/><path d="M756.5 463L763.5 465" stroke="#6b4206" stroke-width="1.2"/>
</g>
<g id="angle-label" fill="#39414a"><path d="M797 645.09V641.75L809.81 625H814.98L802.91 641.01H811.41V635.77H815.94V641.01H820.55V645.09H815.94V651H811.26V645.09ZM829.77 651.37Q827.02 651.37 824.4 650.57Q821.78 649.77 820 648.36L822.04 644.61Q823.45 645.76 825.48 646.47Q827.5 647.17 829.69 647.17Q832.26 647.17 833.72 646.1Q835.19 645.02 835.19 643.2Q835.19 641.97 834.58 641.05Q833.97 640.12 832.42 639.63Q830.88 639.15 828.21 639.15H821.93L823.27 625H838.53V629.05H827.35L826.8 635.07H829.29Q833.15 635.07 835.51 636.09Q837.87 637.11 838.96 638.91Q840.06 640.71 840.06 643.01Q840.06 645.28 838.94 647.17Q837.83 649.07 835.54 650.22Q833.26 651.37 829.77 651.37Z"/><circle cx="846" cy="630.5" r="4.2" fill="none" stroke="#39414a" stroke-width="2.6"/></g>
<g id="compass" stroke-linejoin="round">
<path d="M1068.56 451.41A150 150 0 0 1 1063.39 453.95M1052.29 458.59A150 150 0 0 1 1046.85 460.5M1035.27 463.79A150 150 0 0 1 1029.65 465.04M1017.76 466.94A150 150 0 0 1 1012.03 467.52M1000 468A150 150 0 0 1 994.24 467.89M982.24 466.94A150 150 0 0 1 976.53 466.15M964.73 463.79A150 150 0 0 1 959.16 462.33M947.71 458.59A150 150 0 0 1 942.36 456.48M931.44 451.41A150 150 0 0 1 926.36 448.68" stroke="#b5821f" stroke-width="2" fill="none" stroke-linecap="round"/>
<polygon points="1005.54,320.3 953.88,437.44 948.15,435.07 994.46,315.7" fill="#4a525c"/>
<path d="M997.69 317.04L950.21 435.92" stroke="#aab2ba" stroke-width="1.5"/>
<polygon points="960.15,425.97 955.56,437.05 947.24,433.61 951.83,422.52" fill="url(#goldH)" stroke="#7d520e" stroke-width="1"/>
<path d="M951.02 436.26L942.6 456.58" stroke="#3c424a" stroke-width="1.8" stroke-linecap="round"/>
<polygon points="1005.54,315.7 1051.85,435.07 1046.12,437.44 994.46,320.3" fill="#4a525c"/>
<path d="M1002.31 317.04L1049.79 435.92" stroke="#aab2ba" stroke-width="1.5"/>
<polygon points="1048.17,422.52 1052.76,433.61 1044.44,437.05 1039.85,425.97" fill="url(#goldH)" stroke="#7d520e" stroke-width="1"/>
<polygon points="1051.76,435.11 1057.4,456.58 1046.21,437.4" fill="#d4aa5a"/>
<polygon points="1055.36,448.77 1057.4,456.58 1053.32,449.61" fill="#2d323a"/>
<path d="M1017.6 360.5A46 46 0 0 1 982.4 360.5" stroke="#4f5862" stroke-width="2.5" fill="none"/>
<path d="M1017.6 360.5L1015.31 354.96M1011.91 362.43L1010.87 358.57M1006 363.61L1005.48 359.64M1000 364L1000 358M994 363.61L994.52 359.64M988.09 362.43L989.13 358.57M982.4 360.5L984.69 354.96" stroke="#373e46" stroke-width="1.2"/>
<rect x="996.5" y="284" width="7" height="24" rx="3" fill="url(#goldH)" stroke="#7d520e" stroke-width="1"/>
<circle cx="1000" cy="318" r="11" fill="url(#goldH)" stroke="#7d520e" stroke-width="1.5"/><circle cx="1000" cy="318" r="4.5" fill="#4a525c"/><circle cx="998.5" cy="315.5" r="1.1" fill="#d0d5da"/>
</g>
<g id="wordmark">
<path d="M632.88 939.66H634.38L648.75 1047.63Q649.76 1051.98 652.93 1054.49Q656.44 1057.33 660.79 1057.33H663.46V1059H613.32V1057.5H615.83Q618.67 1057.5 620.51 1055.24Q622.35 1052.98 622.35 1050.31V1049.81L615.83 989.8L584.57 1043.96L582.9 1046.8Q581.23 1049.81 579.64 1053.99Q578.05 1058.16 578.05 1062.34H576.38L533.43 990.14L526.91 1049.81V1050.31Q526.91 1052.98 528.83 1055.24Q530.75 1057.5 533.43 1057.5H535.93V1059H501V1057.33H503.67Q508.19 1057.33 511.7 1054.49Q514.71 1052.31 515.54 1048.3L529.75 939.66H531.25L583.23 1024.9Z" fill="url(#goldText)"/>
<path d="M765.85 938.66 816.33 1048.97Q818.83 1052.98 822.01 1054.82Q826.02 1057.33 829.86 1057.33H831.2V1059H778.05V1057.33H779.55Q782.9 1057.33 785.4 1054.57Q787.91 1051.81 785.91 1046.8L777.72 1026.24H738.44L729.75 1047.47Q728.74 1050.31 729.41 1052.48Q730.25 1054.82 732.25 1056.08Q734.26 1057.33 736.26 1057.33H737.77V1059H702V1057.33H703.5Q707.35 1057.33 711.53 1054.82Q714.7 1052.98 717.04 1048.97L756.15 960.55Q756.66 959.55 757.91 956.79Q759.16 954.03 760.58 950.52Q762 947.01 763.17 943.75Q764.34 940.5 764.34 938.66ZM741.45 1019.22H774.87L758.49 978.1Z" fill="url(#goldText)"/>
<path d="M890.87 1046.8V954.2Q890.7 949.86 887.61 946.76Q884.52 943.67 880.17 943.67H878V942H935.33Q942.85 942 950.04 943.67Q957.23 945.34 962.83 949.02Q968.42 952.7 971.77 958.71Q975.11 964.73 975.11 973.59Q975.11 980.61 972.18 987.55Q969.26 994.48 963.24 999.41Q957.23 1004.34 947.7 1005.35Q953.05 1007.02 957.48 1011.36Q961.91 1015.71 964.75 1020.06Q964.91 1020.39 966.67 1023.06Q968.42 1025.74 971.01 1029.67Q973.61 1033.59 976.45 1037.61Q979.29 1041.62 981.63 1044.63Q985.31 1049.14 988.31 1051.9Q991.32 1054.65 994.67 1055.91Q998.01 1057.16 1002.35 1057.33V1059H985.97Q976.95 1059 969.59 1057.41Q962.24 1055.82 956.56 1051.98Q950.87 1048.14 946.7 1041.62Q945.36 1039.61 943.77 1036.52Q942.18 1033.43 940.51 1029.92Q938.84 1026.41 937.25 1023.15Q935.66 1019.89 934.49 1017.21Q933.32 1014.54 932.82 1013.04Q930.65 1007.69 927.72 1005.01Q924.8 1002.34 921.46 1001.84V1000.17H926.64Q931.15 1000.17 935.41 998.33Q939.68 996.49 943.02 992.31Q946.36 988.13 947.7 980.78Q948.03 979.27 948.28 977.27Q948.53 975.26 948.37 972.75Q947.87 960.72 942.35 955.12Q936.83 949.52 928.64 949.35Q926.3 949.19 923.55 949.27Q920.79 949.35 918.62 949.35H915.94V1046.8Q915.94 1051.14 919.12 1054.24Q922.29 1057.33 926.64 1057.33H928.64V1059H878V1057.33H880.17Q884.52 1057.33 887.61 1054.24Q890.7 1051.14 890.87 1046.8Z" fill="url(#goldText)"/>
<path d="M1096.85 938.66 1147.33 1048.97Q1149.83 1052.98 1153.01 1054.82Q1157.02 1057.33 1160.86 1057.33H1162.2V1059H1109.05V1057.33H1110.55Q1113.9 1057.33 1116.4 1054.57Q1118.91 1051.81 1116.91 1046.8L1108.72 1026.24H1069.44L1060.75 1047.47Q1059.74 1050.31 1060.41 1052.48Q1061.25 1054.82 1063.25 1056.08Q1065.26 1057.33 1067.26 1057.33H1068.77V1059H1033V1057.33H1034.5Q1038.35 1057.33 1042.53 1054.82Q1045.7 1052.98 1048.04 1048.97L1087.15 960.55Q1087.66 959.55 1088.91 956.79Q1090.16 954.03 1091.58 950.52Q1093 947.01 1094.17 943.75Q1095.34 940.5 1095.34 938.66ZM1072.45 1019.22H1105.87L1089.49 978.1Z" fill="url(#steelText)"/>
<path d="M1220.87 1046.8V954.2Q1220.7 949.86 1217.61 946.76Q1214.52 943.67 1210.17 943.67H1208V942H1256.3Q1268.51 942 1278.12 944.92Q1287.73 947.85 1293.24 954.12Q1298.76 960.39 1298.76 970.58Q1298.76 978.27 1295.83 983.62Q1292.91 988.97 1288.23 991.81Q1283.55 994.65 1278.37 995.32Q1286.72 995.99 1293.49 1000Q1300.26 1004.01 1304.11 1010.7Q1307.95 1017.38 1307.95 1026.41Q1307.95 1037.1 1302.1 1044.38Q1296.25 1051.65 1285.64 1055.32Q1275.02 1059 1260.98 1059H1208V1057.33H1210.17Q1214.52 1057.33 1217.61 1054.24Q1220.7 1051.14 1220.87 1046.8ZM1245.94 949.19V1051.48H1253.63Q1261.15 1051.48 1266.92 1048.64Q1272.68 1045.8 1275.94 1039.78Q1279.2 1033.76 1279.2 1024.4Q1279.2 1017.05 1276.95 1011.87Q1274.69 1006.68 1270.93 1003.42Q1267.17 1000.17 1262.15 998.66Q1257.14 997.16 1251.62 997.16V995.65Q1255.47 995.65 1259.15 994.4Q1262.82 993.15 1265.75 990.47Q1268.67 987.8 1270.34 983.37Q1272.02 978.94 1272.02 972.75Q1272.02 964.23 1269.42 959.05Q1266.83 953.87 1261.99 951.53Q1257.14 949.19 1250.79 949.19Z" fill="url(#steelText)"/>
<path d="M1413.14 942V943.67H1410.46Q1406.79 943.67 1404.19 946.01Q1401.6 948.35 1401.6 952.03V1015.54Q1401.6 1027.41 1405.53 1036.1Q1409.46 1044.79 1416.73 1049.47Q1424 1054.15 1434.03 1054.15Q1444.23 1054.15 1451.66 1049.72Q1459.1 1045.29 1463.11 1037.1Q1467.12 1028.91 1467.12 1017.72V952.03Q1467.12 948.35 1464.53 946.01Q1461.94 943.67 1458.27 943.67H1455.59V942H1490.69V943.67H1488.02Q1484.34 943.67 1481.75 946.01Q1479.16 948.35 1479.16 952.03V1016.71Q1479.16 1030.42 1473.39 1040.45Q1467.63 1050.48 1456.84 1055.91Q1446.06 1061.34 1430.85 1061.34Q1413.14 1061.34 1400.94 1055.91Q1388.73 1050.48 1382.63 1040.53Q1376.53 1030.59 1376.53 1016.88V952.03Q1376.53 948.35 1373.94 946.01Q1371.35 943.67 1367.67 943.67H1365V942Z" fill="url(#steelText)"/>
</g>
<g id="divider"><rect x="404" y="1131" width="571" height="2.4" fill="#a87420"/><rect x="1025" y="1131" width="571" height="2.4" fill="#3c434c"/><path d="M1000 1120L1012 1132L1000 1144L988 1132Z" fill="url(#goldH)"/><path d="M1000 1120L1012 1132L1000 1144Z" fill="#7d520e" opacity=".35"/></g>
<g id="tagline">
<path d="M593.23 1224.51Q589.12 1224.51 585.6 1223.15Q582.07 1221.79 579.48 1219.29Q576.88 1216.8 575.44 1213.41Q574 1210.01 574 1206Q574 1201.99 575.44 1198.59Q576.88 1195.2 579.5 1192.71Q582.13 1190.21 585.62 1188.85Q589.12 1187.49 593.29 1187.49Q597.71 1187.49 601.36 1189Q605.01 1190.52 607.53 1193.5L603.21 1197.57Q601.26 1195.46 598.84 1194.4Q596.42 1193.35 593.59 1193.35Q590.77 1193.35 588.43 1194.27Q586.09 1195.2 584.36 1196.9Q582.64 1198.59 581.69 1200.91Q580.74 1203.22 580.74 1206Q580.74 1208.78 581.69 1211.09Q582.64 1213.41 584.36 1215.1Q586.09 1216.8 588.43 1217.73Q590.77 1218.65 593.59 1218.65Q596.42 1218.65 598.84 1217.6Q601.26 1216.54 603.21 1214.38L607.53 1218.5Q605.01 1221.43 601.36 1222.97Q597.71 1224.51 593.23 1224.51Z" fill="#a8711a"/>
<path d="M661.44 1224.51Q657.22 1224.51 653.67 1223.13Q650.13 1221.74 647.5 1219.24Q644.88 1216.75 643.44 1213.38Q642 1210.01 642 1206Q642 1201.99 643.44 1198.62Q644.88 1195.25 647.5 1192.76Q650.13 1190.26 653.67 1188.87Q657.22 1187.49 661.39 1187.49Q665.61 1187.49 669.13 1188.87Q672.65 1190.26 675.27 1192.76Q677.9 1195.25 679.34 1198.62Q680.78 1201.99 680.78 1206Q680.78 1210.01 679.34 1213.41Q677.9 1216.8 675.27 1219.27Q672.65 1221.74 669.13 1223.13Q665.61 1224.51 661.44 1224.51ZM661.39 1218.65Q664.11 1218.65 666.43 1217.73Q668.74 1216.8 670.44 1215.08Q672.14 1213.35 673.09 1211.07Q674.04 1208.78 674.04 1206Q674.04 1203.22 673.09 1200.93Q672.14 1198.65 670.44 1196.92Q668.74 1195.2 666.43 1194.27Q664.11 1193.35 661.39 1193.35Q658.66 1193.35 656.37 1194.27Q654.09 1195.2 652.36 1196.92Q650.64 1198.65 649.69 1200.93Q648.74 1203.22 648.74 1206Q648.74 1208.73 649.69 1211.04Q650.64 1213.35 652.34 1215.08Q654.03 1216.8 656.35 1217.73Q658.66 1218.65 661.39 1218.65Z" fill="#a8711a"/>
<path d="M721 1224V1188H726.5L746.35 1212.38V1188H752.99V1224H747.49L727.63 1199.62V1224Z" fill="#a8711a"/>
<path d="M806.19 1224.51Q801.98 1224.51 798.12 1223.31Q794.26 1222.1 792 1220.19L794.31 1215Q796.47 1216.7 799.66 1217.83Q802.85 1218.96 806.19 1218.96Q809.02 1218.96 810.77 1218.34Q812.52 1217.73 813.34 1216.67Q814.17 1215.62 814.17 1214.28Q814.17 1212.63 812.98 1211.63Q811.8 1210.63 809.92 1210.04Q808.05 1209.45 805.76 1208.93Q803.47 1208.42 801.18 1207.72Q798.89 1207.03 797.01 1205.92Q795.14 1204.82 793.95 1202.97Q792.77 1201.11 792.77 1198.23Q792.77 1195.3 794.34 1192.86Q795.91 1190.42 799.12 1188.95Q802.34 1187.49 807.27 1187.49Q810.51 1187.49 813.7 1188.31Q816.89 1189.13 819.26 1190.67L817.15 1195.87Q814.73 1194.43 812.16 1193.73Q809.59 1193.04 807.22 1193.04Q804.45 1193.04 802.72 1193.71Q801 1194.38 800.2 1195.46Q799.41 1196.54 799.41 1197.93Q799.41 1199.57 800.56 1200.57Q801.72 1201.58 803.6 1202.14Q805.47 1202.71 807.79 1203.25Q810.1 1203.79 812.39 1204.46Q814.68 1205.13 816.56 1206.21Q818.43 1207.29 819.59 1209.14Q820.75 1210.99 820.75 1213.82Q820.75 1216.7 819.18 1219.14Q817.61 1221.58 814.37 1223.05Q811.13 1224.51 806.19 1224.51Z" fill="#a8711a"/>
<path d="M866.93 1224V1193.66H855V1188H885.55V1193.66H873.62V1224Z" fill="#a8711a"/>
<path d="M924 1224V1188H938.76Q945.96 1188 950.05 1191.39Q954.14 1194.79 954.14 1200.81Q954.14 1204.77 952.29 1207.62Q950.43 1210.47 947.04 1211.97Q946.78 1212.12 946.47 1212.22L954.75 1224H947.55L940.2 1213.46Q939.53 1213.51 938.81 1213.51H930.69V1224ZM930.69 1208.01H938.5Q942.93 1208.01 945.16 1206.1Q947.4 1204.2 947.4 1200.81Q947.4 1197.36 945.16 1195.51Q942.93 1193.66 938.5 1193.66H930.69Z" fill="#a8711a"/>
<path d="M1009.79 1224.51Q1002.38 1224.51 998.19 1220.35Q994 1216.18 994 1208.31V1188H1000.69V1208.06Q1000.69 1213.61 1003.08 1216.13Q1005.47 1218.65 1009.84 1218.65Q1014.21 1218.65 1016.58 1216.13Q1018.94 1213.61 1018.94 1208.06V1188H1025.53V1208.31Q1025.53 1216.18 1021.33 1220.35Q1017.14 1224.51 1009.79 1224.51Z" fill="#3a414a"/>
<path d="M1084.23 1224.51Q1080.12 1224.51 1076.6 1223.15Q1073.07 1221.79 1070.48 1219.29Q1067.88 1216.8 1066.44 1213.41Q1065 1210.01 1065 1206Q1065 1201.99 1066.44 1198.59Q1067.88 1195.2 1070.5 1192.71Q1073.13 1190.21 1076.62 1188.85Q1080.12 1187.49 1084.29 1187.49Q1088.71 1187.49 1092.36 1189Q1096.01 1190.52 1098.53 1193.5L1094.21 1197.57Q1092.26 1195.46 1089.84 1194.4Q1087.42 1193.35 1084.59 1193.35Q1081.77 1193.35 1079.43 1194.27Q1077.09 1195.2 1075.36 1196.9Q1073.64 1198.59 1072.69 1200.91Q1071.74 1203.22 1071.74 1206Q1071.74 1208.78 1072.69 1211.09Q1073.64 1213.41 1075.36 1215.1Q1077.09 1216.8 1079.43 1217.73Q1081.77 1218.65 1084.59 1218.65Q1087.42 1218.65 1089.84 1217.6Q1092.26 1216.54 1094.21 1214.38L1098.53 1218.5Q1096.01 1221.43 1092.36 1222.97Q1088.71 1224.51 1084.23 1224.51Z" fill="#3a414a"/>
<path d="M1144.93 1224V1193.66H1133V1188H1163.55V1193.66H1151.62V1224Z" fill="#3a414a"/>
<path d="M1203 1224V1188H1209.69V1224Z" fill="#3a414a"/>
<path d="M1267.44 1224.51Q1263.22 1224.51 1259.67 1223.13Q1256.13 1221.74 1253.5 1219.24Q1250.88 1216.75 1249.44 1213.38Q1248 1210.01 1248 1206Q1248 1201.99 1249.44 1198.62Q1250.88 1195.25 1253.5 1192.76Q1256.13 1190.26 1259.67 1188.87Q1263.22 1187.49 1267.39 1187.49Q1271.61 1187.49 1275.13 1188.87Q1278.65 1190.26 1281.27 1192.76Q1283.9 1195.25 1285.34 1198.62Q1286.78 1201.99 1286.78 1206Q1286.78 1210.01 1285.34 1213.41Q1283.9 1216.8 1281.27 1219.27Q1278.65 1221.74 1275.13 1223.13Q1271.61 1224.51 1267.44 1224.51ZM1267.39 1218.65Q1270.11 1218.65 1272.43 1217.73Q1274.74 1216.8 1276.44 1215.08Q1278.14 1213.35 1279.09 1211.07Q1280.04 1208.78 1280.04 1206Q1280.04 1203.22 1279.09 1200.93Q1278.14 1198.65 1276.44 1196.92Q1274.74 1195.2 1272.43 1194.27Q1270.11 1193.35 1267.39 1193.35Q1264.66 1193.35 1262.37 1194.27Q1260.09 1195.2 1258.36 1196.92Q1256.64 1198.65 1255.69 1200.93Q1254.74 1203.22 1254.74 1206Q1254.74 1208.73 1255.69 1211.04Q1256.64 1213.35 1258.34 1215.08Q1260.03 1216.8 1262.35 1217.73Q1264.66 1218.65 1267.39 1218.65Z" fill="#3a414a"/>
<path d="M1327 1224V1188H1332.5L1352.35 1212.38V1188H1358.99V1224H1353.49L1333.63 1199.62V1224Z" fill="#3a414a"/>
<path d="M1412.19 1224.51Q1407.98 1224.51 1404.12 1223.31Q1400.26 1222.1 1398 1220.19L1400.31 1215Q1402.47 1216.7 1405.66 1217.83Q1408.85 1218.96 1412.19 1218.96Q1415.02 1218.96 1416.77 1218.34Q1418.52 1217.73 1419.34 1216.67Q1420.17 1215.62 1420.17 1214.28Q1420.17 1212.63 1418.98 1211.63Q1417.8 1210.63 1415.92 1210.04Q1414.05 1209.45 1411.76 1208.93Q1409.47 1208.42 1407.18 1207.72Q1404.89 1207.03 1403.01 1205.92Q1401.14 1204.82 1399.95 1202.97Q1398.77 1201.11 1398.77 1198.23Q1398.77 1195.3 1400.34 1192.86Q1401.91 1190.42 1405.12 1188.95Q1408.34 1187.49 1413.27 1187.49Q1416.51 1187.49 1419.7 1188.31Q1422.89 1189.13 1425.26 1190.67L1423.15 1195.87Q1420.73 1194.43 1418.16 1193.73Q1415.59 1193.04 1413.22 1193.04Q1410.45 1193.04 1408.72 1193.71Q1407 1194.38 1406.2 1195.46Q1405.41 1196.54 1405.41 1197.93Q1405.41 1199.57 1406.56 1200.57Q1407.72 1201.58 1409.6 1202.14Q1411.47 1202.71 1413.79 1203.25Q1416.1 1203.79 1418.39 1204.46Q1420.68 1205.13 1422.56 1206.21Q1424.43 1207.29 1425.59 1209.14Q1426.75 1210.99 1426.75 1213.82Q1426.75 1216.7 1425.18 1219.14Q1423.61 1221.58 1420.37 1223.05Q1417.13 1224.51 1412.19 1224.51Z" fill="#3a414a"/>
</g></svg>
